<?xml version="1.0" encoding="UTF-8"?>
<!-- Created with Inkscape (http://www.inkscape.org/) -->
<svg width="56.12" height="51.85" version="1.1" xmlns="http://www.w3.org/2000/svg" xmlns:cc="http://creativecommons.org/ns#" xmlns:dc="http://purl.org/dc/elements/1.1/" xmlns:rdf="http://www.w3.org/1999/02/22-rdf-syntax-ns#">
 <metadata>
  <rdf:RDF>
   <cc:Work rdf:about="">
    <dc:format>image/svg+xml</dc:format>
    <dc:type rdf:resource="http://purl.org/dc/dcmitype/StillImage"/>
   </cc:Work>
  </rdf:RDF>
 </metadata>
 <g transform="translate(-346.9 -506.4)">
  <g transform="translate(44.94 179.8)">
   <path transform="translate(0 308.3)" d="m349.6 34.19-7.781 3.625c0.9199 1.971 1.438 4.181 1.438 6.5s-0.5176 4.498-1.438 6.469l7.781 3.625c2.989-6.41 2.989-13.81 0-20.22z" fill="#aad400"/>
   <g fill="#217821">
    <path transform="translate(0 308.3)" d="m328.2 20.38c-6.895-0.05633-13.78 2.868-18.56 8.562-8.495 10.12-7.155 25.19 2.969 33.69s25.19 7.186 33.69-2.938l-6.406-5.375c-2.855 3.4-7.119 5.562-11.91 5.562-8.595 0-15.56-6.967-15.56-15.56s6.967-15.56 15.56-15.56c4.787 0 9.051 2.163 11.91 5.562l6.406-5.375c-0.8954-1.067-1.87-2.073-2.938-2.969-4.429-3.716-9.794-5.55-15.16-5.594z"/>
    <path transform="translate(0 308.3)" d="m353.4 25.09-15.28 11.5 0.0497 1.109 1.044 0.5786 16.88-8.969c-0.7852-1.477-1.681-2.883-2.688-4.219z"/>
    <path transform="translate(0 308.3)" d="m339.2 50.31-1.047 0.4375-0.0469 1.25 15.28 11.53c1.007-1.336 1.902-2.773 2.688-4.25z"/>
   </g>
  </g>
 </g>
</svg>
